<svg width="330" height="330" viewBox="0 0 330 330" fill="none" xmlns="http://www.w3.org/2000/svg">
<path d="M164.9 293.6C237.47 293.6 296.3 234.77 296.3 162.2C296.3 89.6296 237.47 30.7998 164.9 30.7998C92.3298 30.7998 33.5 89.6296 33.5 162.2C33.5 234.77 92.3298 293.6 164.9 293.6Z" fill="white"/>
<path d="M101.6 245.3C110.547 245.3 117.8 238.047 117.8 229.1C117.8 220.153 110.547 212.9 101.6 212.9C92.653 212.9 85.4 220.153 85.4 229.1C85.4 238.047 92.653 245.3 101.6 245.3Z" fill="#DE9E1F"/>
<path d="M315.5 165.2C315.5 82.2 248.2 15 165.3 15C82.4 15 15 82 15 165C15 248 82.3 315 165.2 315H300.6L262.6 279.2C295.1 251.8 315.5 210.9 315.5 165.2ZM101.4 75.7C116 75.7 127.9 87.6 127.9 102.2C127.9 116.8 116 128.7 101.4 128.7C86.8 128.7 74.9 116.8 74.9 102.2C75 87.4 86.8 75.7 101.4 75.7ZM172.5 195.6L120.8 247.3C110.5 257.6 93.7 257.6 83.4 247.3C73.1 237 73.1 220.2 83.4 209.9L135.1 158.2C145.4 147.9 162.2 147.9 172.5 158.2C182.8 168.5 182.8 185.3 172.5 195.6V195.6ZM198.2 167.1C199 157.7 196 147.9 188.8 140.9C182.2 134.3 173.5 131.2 164.8 131.4C163.8 131.4 163.3 130.2 164 129.5L210.2 83.3C220.5 73 237.3 73 247.6 83.3C257.9 93.6 257.9 110.4 247.6 120.7L200.1 168C199.3 168.7 198.1 168.1 198.2 167.1ZM229.6 255.4C215 255.4 203.1 243.5 203.1 228.9C203.1 214.3 215 202.4 229.6 202.4C244.2 202.4 256.1 214.3 256.1 228.9C255.9 243.5 244.2 255.4 229.6 255.4Z" fill="#DE9E1F"/>
</svg>
